<svg xmlns="http://www.w3.org/2000/svg" viewBox="0 0 32 32" fill="none">
  <rect width="32" height="32" rx="6" fill="#0A0A0A"/>
  <g fill="#39FF7A">
    <rect x="5" y="5" width="8" height="8" rx="1.5"/>
    <rect x="7" y="7" width="4" height="4" fill="#0A0A0A"/>
    <rect x="8" y="8" width="2" height="2"/>
    <rect x="19" y="5" width="8" height="8" rx="1.5"/>
    <rect x="21" y="7" width="4" height="4" fill="#0A0A0A"/>
    <rect x="22" y="8" width="2" height="2"/>
    <rect x="5" y="19" width="8" height="8" rx="1.5"/>
    <rect x="7" y="21" width="4" height="4" fill="#0A0A0A"/>
    <rect x="8" y="22" width="2" height="2"/>
    <rect x="15" y="5" width="2" height="2"/>
    <rect x="15" y="9" width="2" height="2"/>
    <rect x="15" y="15" width="2" height="2"/>
    <rect x="19" y="15" width="2" height="2"/>
    <rect x="23" y="15" width="2" height="2"/>
    <rect x="15" y="19" width="2" height="2"/>
    <rect x="19" y="19" width="2" height="2"/>
    <rect x="23" y="19" width="2" height="2"/>
    <rect x="19" y="23" width="2" height="2"/>
    <rect x="23" y="23" width="2" height="2"/>
    <rect x="15" y="23" width="2" height="2"/>
  </g>
</svg>
